<svg width="170mm" height="113.75mm" version="1.1" viewBox="0 0 170 113.75" xmlns="http://www.w3.org/2000/svg">
 <g>
  <path d="m61.312 0v0.32143c1.6795 0.94398 2.9395 2.1664 3.7802 3.6675 0.8397 1.5022 1.2106 2.8951 1.1136 4.1822-0.0979 1.2866-0.4596 2.3916-1.0842 3.3135-0.6256 0.9229-1.8368 1.5017-3.6333 1.7368-1.798 0.2361-19.595 0.3545-53.392 0.3545-2.9306 0.3041-5.6256 0.611-8.0967 0.9204v4.6834c0.8484 0.0184 1.6849 0.0545 2.5001 0.1225 4.1217 0.3436 6.9741 0.7509 8.5566 1.2221 1.5824 0.4728 2.9103 1.5763 3.9853 3.3135 1.074 1.7372 1.7083 5.1582 1.9042 10.262v51.472c-0.4301 5.1053-1.1719 8.2991-2.2272 9.5861-1.0548 1.287-2.4817 2.156-4.2783 2.606-1.7975 0.451-3.8584 0.847-6.1826 1.191-1.4427 0.213-2.8605 0.528-4.2581 0.922v2.405c1.5704-0.3 3.2527-0.531 5.0493-0.689 2.4221-0.215 6.6517-0.441 12.688-0.677s14.759-0.3 26.168-0.193c11.408 0.107 17.377 0.568 17.905 1.384 0.5276 0.814 0.84 1.919 0.9379 3.313 0.097 1.394-0.2256 2.616-0.9674 3.668-0.7427 1.051-2.3833 2.606-4.9226 4.665 3.1648-1.631 5.2247-2.907 6.1825-3.829 0.9574-0.923 2.0222-2.134 3.1941-3.634 1.1725-1.503 2.9108-3.594 5.2168-6.274 2.3045-2.68 4.6293-5.93 6.9737-9.7477 2.3444-3.8171 5.2061-9.8972 8.5859-18.24 3.379-8.342 4.952-14.594 4.718-18.755-0.625 6.7344-3.37 13.512-8.2345 20.332-4.8644 6.8203-8.3029 11.217-10.315 13.19-2.0131 1.9734-3.7026 3.4315-5.0699 4.3744-1.3679 0.944-2.9499 1.813-4.7465 2.606-1.7975 0.794-3.7515 1.427-5.8611 1.898-2.1101 0.473-6.8082 0.643-14.095 0.515-7.2875-0.129-11.517-0.483-12.689-1.062-1.1724-0.579-1.9146-1.329-2.2267-2.252-0.313-0.9215-0.519-3.699-0.616-8.3315-0.0979-4.6324-0.0491-12.053 0.1468-22.262 6.564-5.1042 11.272-7.8274 14.124-8.1711 2.8519-0.3431 5.5974-0.3963 8.2347-0.1607 2.6372 0.2361 4.8542 0.6429 6.6518 1.2221 1.7965 0.5793 4.278 1.7918 7.4429 3.6355-2.9301-3.2173-5.2452-5.2975-6.9448-6.2415-1.6996-0.9429-4.1318-1.5865-7.2967-1.9301-3.1649-0.3426-6.3882-0.3426-9.6702 0-3.2815 0.3436-7.4628 1.0941-12.542 2.252v-34.808h27.604c3.9849-0.214 6.8759-0.214 8.6734 0 1.7966 0.2155 3.6525 0.9117 5.5676 2.0913 0.82 0.5057 1.61 1.1782 2.3694 2.0144-3.6282 0.6722-8.4668 1.4548-14.609 2.3569h0.3514c6.2168-0.704 11.09-1.3117 14.713-1.8304 0.8459 1.0222 1.6534 2.2544 2.4211 3.7006 1.5824 2.9816 2.5292 5.5328 2.8422 7.6558 0.3125 2.1231 0.4194 4.5152 0.3224 7.1743-0.0979 2.6601-0.889 7.571-2.3735 14.734 2.305-5.5332 3.8872-10.627 4.747-15.281 0.859-4.6535 0.9087-9.2427 0.1468-13.769-0.339-2.0131-0.707-3.8287-1.1002-5.4684 2.5816-0.6473 5.1388-1.5162 7.6731-2.6097 2.832-1.2228 4.805-1.8016 5.919-1.7373 1.113 0.0643 1.983 0.6436 2.608 1.7373 0.418 0.7328 0.694 6.238 0.832 16.291-0.037 0.0113-0.056 0.0186-0.039 0.0186 0.013-0.0047 0.026-0.0094 0.039-0.0139 0.069 4.9499 0.106 10.917 0.106 18.125 0 21.855-0.186 34.401-0.557 37.639-0.372 3.24-1.456 5.17-3.253 5.79-1.797 0.623-3.584 1.266-5.362 1.93-1.778 0.666-3.5358 1.545-5.2748 2.639-1.738 1.094-5.1872 4.471-10.345 10.133 4.8059-4.461 8.4104-7.367 10.813-8.718 2.4031-1.351 5.4211-2.231 9.0551-2.638 3.634-0.406 6.593-0.515 8.879-0.322 0.6 0.051 1.321 0.109 1.947 0.161-0.813 0.756-1.589 1.612-2.327 2.574-1.348 1.758-2.275 4.332-2.783 7.72 0.859-2.959 2.002-5.254 3.428-6.884 1.166-1.333 2.412-2.41 3.734-3.24 1.145 0.094 2.191 0.183 3.415 0.281 2.656 0.214 5.274 0.665 7.853 1.351l1.233-4.115c0.157 9e-3 0.313 0.017 0.468 0.029 1.973 0.151 3.849 0.461 5.627 0.933 1.777 0.472 3.437 0.944 4.981 1.415 1.543 0.472 3.487 0.912 5.831 1.32 2.345 0.407 4.689 0.503 7.033 0.289 2.344-0.215 4.249-0.525 5.714-0.932 1.466-0.409 2.696-0.976 3.693-1.706 0.996-0.729 2.11-1.329 3.34-1.802 1.231-0.471 3.077-2.251 5.539-5.3393-0.117 0-0.977 0.6653-2.579 1.9943-1.603 1.33-3.204 2.306-4.805 2.927-1.603 0.623-3.087 0.965-4.455 1.03-1.368 0.064-2.599-0.075-3.692-0.418-1.095-0.343-2.042-0.75-2.843-1.223-0.801-0.471-1.768-2.659-2.9-6.5623l-0.528-43.622c4.18 0 8.478 0.4719 12.894 1.4149l2.813-8.6858c-3.596 1.7594-8.713 2.7027-15.355 2.8314-0.509-6.5194-0.323-11.527 0.556-15.024 0.88-3.495 1.719-5.7151 2.52-6.659 0.801-0.943 1.533-1.8227 2.198-2.6381 0.664-0.8143 1.612-1.5215 2.843-2.1229 1.23-0.6003 2.705-1.1041 4.425-1.5125 1.719-0.4069 3.29-0.5785 4.717-0.5142 1.426 0.0643 2.94 0.2682 4.543 0.6108 1.601 0.3442 2.988 1.287 4.161 2.8313 1.172 1.5438 1.728 3.3998 1.669 5.5656-0.058 2.1662-0.371 4.0212-0.937 5.5655-0.567 1.5438-1.368 2.628-2.403 3.2489-1.036 0.6225-1.954 0.8264-2.754 0.6113-0.802-0.2139-1.573-1.0504-2.315-2.5094 1.719-0.1286 2.792-0.5035 3.223-1.126 0.429-0.6214 0.703-1.4688 0.821-2.5414 0.117-1.0716-0.069-2.112-0.557-3.1202-0.489-1.0073-1.436-1.6508-2.843-1.9302-1.406-0.2788-2.696 0.1927-3.868 1.4149-1.172 1.2228-1.67 3.0142-1.494 5.3728 0.176 2.3597 0.947 4.2788 2.315 5.7583 1.367 1.48 3.272 2.1877 5.714 2.1234 2.441-0.0643 4.463-0.9753 6.066-2.7347 1.601-1.7583 2.617-3.9569 3.048-6.5949 0.429-2.6375 0.37-5.4791-0.177-8.5251-0.547-3.0449-2.481-5.3723-5.802-6.9804-3.321-1.6087-7.141-2.2845-11.458-2.0273-4.317 0.2577-8.068 1.0619-11.252 2.4133-3.185 1.3509-6.691 3.1845-10.519 5.5009-3.83 2.3165-7.377 4.7191-10.638 7.2063-3.262 2.4883-6.769 4.7188-10.52 6.6911-0.967 0.5087-1.966 1.0041-2.995 1.4872 0.031-10.536 0.121-16.257 0.268-17.121 0.235-1.3725 0.996-2.4228 2.286-3.1528 1.29-0.7289 4.337-1.5007 9.143-2.3161-4.416-0.5571-7.853-0.3318-10.315 0.6754-2.462 1.0088-5.666 2.2307-9.612 3.667-3.947 1.4378-7.463 2.8636-10.549 4.2788-2.7835 1.2768-5.4871 2.3343-8.1127 3.1744-0.4245-1.6465-0.8776-3.0952-1.3617-4.3289-1.0356-2.638-2.5103-5.1787-4.4245-7.6238-1.9147-2.4451-3.8779-4.4283-5.8901-5.9511-2.0126-1.5221-4.1711-2.391-6.4761-2.606zm-49.604 0.50023c-0.0812 0-0.152 0.00968-0.2129 0.02997-0.0304 0.01015-0.0557 0.02034-0.076 0.03049-0.5175 0.37544-1.0654 0.81175-1.6438 1.309-0.5784 0.49725-1.152 1.02-1.7203 1.5678-0.5581 0.548-1.0958 1.1061-1.6133 1.6743-0.5175 0.5683-0.9742 1.1114-1.37 1.6289-0.1826-0.0102-0.3651-0.0102-0.5477 0h-0.5023c-0.3247 0.0101-0.5936 0.0606-0.8067 0.1519s-0.3194 0.2539-0.3194 0.4873c0 0.1522 0.0301 0.2687 0.091 0.3499 0.0609 0.071 0.2235 0.1064 0.4873 0.1064 0.2334 0 0.4057-0.0102 0.5173-0.0305 0.1217-0.0304 0.2436-0.0401 0.3653-0.03-0.1319 0.2233-0.3042 0.5018-0.5172 0.8367-0.203 0.3247-0.4059 0.6547-0.6088 0.9896-0.1928 0.3247-0.3656 0.629-0.5178 0.9131-0.1421 0.274-0.2129 0.4666-0.2129 0.5783 0 0.1522 0.015 0.2386 0.0455 0.2589 0.0304 0.0304 0.1168 0.0556 0.2589 0.0759 0.0507-0.0101 0.1419-0.0912 0.2739-0.2434 0.1319-0.142 0.2789-0.3245 0.4413-0.5477 0.1623-0.2233 0.3351-0.4718 0.5178-0.7457 0.1928-0.274 0.3704-0.5429 0.5328-0.8067 0.1725-0.2638 0.3297-0.5026 0.4718-0.7157l0.3193-0.5023c0.1725 0.0203 0.4011 0.0863 0.6853 0.1979 0.2942 0.1015 0.6034 0.3301 0.9281 0.6852 0.1319 0.1421 0.259 0.3246 0.3808 0.5478s0.2382 0.4411 0.3499 0.6542c0.1217 0.203 0.2382 0.3806 0.3498 0.5328 0.1116 0.1421 0.2286 0.2134 0.3504 0.2134 0.2029 0 0.3752-0.0762 0.5173-0.2284 0.1522-0.1623 0.2842-0.4516 0.3958-0.8676 0.0507-0.203 0.1119-0.431 0.1829-0.6847 0.0711-0.2537 0.1366-0.4973 0.1974-0.7307 0.0711-0.2639 0.1473-0.5381 0.2284-0.8222 0.3349-0.0304 0.614-0.0863 0.8372-0.1674 0.2232-0.0812 0.3805-0.2132 0.4718-0.3959-0.1725-0.0203-0.3802-0.0299-0.6237-0.0299-0.2334 0-0.411-0.0054-0.5328-0.0155 0.0812-0.274 0.1676-0.5579 0.2589-0.8522 0.0913-0.3044 0.1826-0.599 0.2739-0.8831 0.0913-0.2842 0.1772-0.5579 0.2584-0.8217 0.0913-0.2638 0.1728-0.4973 0.2439-0.7002 0.2536-0.7813 0.4613-1.4055 0.6237-1.8722 0.1624-0.47692 0.2439-0.77102 0.2439-0.88264 0-0.16235-0.0917-0.24339-0.2744-0.24339zm41.872 0.85214c-0.3855 0.01015-0.6598 0.11158-0.8221 0.30437-0.1624 0.18265-0.2434 0.42626-0.2434 0.73066 0 0.4262 0.1674 0.6393 0.5023 0.6393 0.345 0 0.5983-0.0913 0.7606-0.2739 0.1725-0.1928 0.2589-0.4214 0.2589-0.6852 0-0.28415-0.0354-0.47682-0.1064-0.57829-0.0609-0.10147-0.1774-0.14709-0.3499-0.13694zm-43.074 0.34985c0 0.07103-0.0359 0.21324-0.1069 0.42628-0.0609 0.2131-0.1828 0.599-0.3654 1.1571-0.2029 0.6291-0.4106 1.2581-0.6237 1.8872-0.203 0.6291-0.3758 1.1717-0.5178 1.6283-0.4161 0.0203-0.8776 0.0257-1.385 0.0155-0.4972-0.0203-0.9539-0.0203-1.3699 0 0.4972-0.7001 0.9743-1.3345 1.4309-1.9027 0.4668-0.5784 0.8881-1.0807 1.2635-1.5069 0.3856-0.4363 0.7205-0.7964 1.0046-1.0805 0.2943-0.2842 0.5175-0.49237 0.6697-0.62428zm25.281 0.19792c-0.1725 0-0.3244 0.02574-0.4563 0.07648-0.2334 0.08118-0.4265 0.22288-0.5787 0.42578-0.1421 0.1928-0.2586 0.4112-0.3499 0.6548l-0.5633 1.5069h-0.6242c-0.1319 0-0.2838 0.0504-0.4563 0.1519-0.1624 0.0913-0.2434 0.2233-0.2434 0.3958 0 0.0812 0.0301 0.1322 0.0909 0.1525 0.0711 0.0101 0.1322 0.015 0.183 0.015h0.2129c0.0913 0 0.1825-0.0048 0.2739-0.015l0.3348-0.0305c-0.142 0.4262-0.2639 0.7863-0.3653 1.0805-0.1015 0.2842-0.1976 0.5579-0.2889 0.8217-0.0913 0.2537-0.1879 0.5177-0.2894 0.7917-0.0913 0.2638-0.1976 0.5885-0.3193 0.9741-0.1522 0.4769-0.2639 0.8729-0.3349 1.1875-0.0609 0.3044-0.0915 0.5373-0.0915 0.6997 0 0.071 0.0048 0.1526 0.015 0.2439 0.0203 0.0812 0.0562 0.1569 0.107 0.2279 0.0507 0.071 0.1264 0.1322 0.2279 0.1829 0.1014 0.0508 0.2388 0.076 0.4113 0.076 0.2232 0 0.5071-0.0456 0.8522-0.1369 0.345-0.0812 0.7405-0.2234 1.187-0.4264 0.4566-0.2131 0.9541-0.497 1.4919-0.8521 0.1838-0.1249 0.3749-0.2646 0.5694-0.4108-0.0038 0.0619-0.0062 0.1233-0.0062 0.1824 0 0.416 0.0607 0.746 0.1825 0.9896 0.1217 0.2435 0.3756 0.3653 0.7611 0.3653 0.4161 0 0.8776-0.1626 1.385-0.4873 0.5175-0.3348 1.0048-0.7862 1.4614-1.3544h0.0604c-0.0203 0.0812-0.0455 0.1874-0.0759 0.3193-0.0203 0.1218-0.0407 0.2538-0.061 0.3959-0.0203 0.1319-0.0402 0.2687-0.0605 0.4108-0.0101 0.1421-0.0155 0.2639-0.0155 0.3654 0 0.1928 0.0408 0.35 0.122 0.4718 0.0812 0.1319 0.1976 0.1979 0.3498 0.1979 0.1928 0 0.4515-0.0864 0.7762-0.2589 0.3247-0.1624 0.6698-0.3652 1.0351-0.6088 0.3653-0.2435 0.7206-0.4968 1.0656-0.7606 0.3551-0.274 0.6492-0.5177 0.8826-0.7307l-0.1369-0.183c-0.2334 0.1725-0.4717 0.3555-0.7152 0.5483-0.2436 0.1827-0.4819 0.3501-0.7152 0.5023-0.2334 0.1522-0.462 0.2789-0.6853 0.3803-0.2131 0.0914-0.4111 0.137-0.5937 0.137-0.0812 0-0.1521-0.0306-0.2129-0.0915-0.0508-0.071-0.076-0.2181-0.076-0.4413 0-0.1015 0.0762-0.3805 0.2284-0.8372 0.1624-0.4566 0.3599-1.0045 0.5932-1.6438 0.1218-0.3247 0.2334-0.5785 0.3349-0.7612 0.1116-0.1928 0.2082-0.4005 0.2894-0.6237 0.1015-0.0913 0.1879-0.1724 0.2589-0.2434s0.1268-0.137 0.1674-0.1979 0.0658-0.1269 0.076-0.1979c0.0203-0.0812 0.0305-0.1778 0.0305-0.2894 0-0.1725-0.0558-0.3147-0.1675-0.4264-0.1014-0.1116-0.2286-0.1975-0.3808-0.2583-0.1421-0.0711-0.2891-0.1167-0.4413-0.137-0.1522-0.0304-0.2789-0.046-0.3804-0.046-0.5581 0-1.1312 0.1218-1.7198 0.3654-0.5885 0.2334-1.2126 0.6648-1.8722 1.294-0.274 0.2638-0.5176 0.5579-0.7307 0.8826s-0.3956 0.6596-0.5478 1.0046-0.2691 0.69-0.3503 1.035c-0.0229 0.0946-0.0347 0.1812-0.0512 0.2708-0.2861 0.2073-0.5847 0.408-0.9074 0.5969-0.4059 0.2435-0.817 0.4512-1.233 0.6237-0.4161 0.1624-0.7864 0.2439-1.1111 0.2439-0.1319 0-0.2333-0.0257-0.3043-0.0764-0.0609-0.0609-0.1017-0.1264-0.122-0.1974-0.0203-0.0711-0.0305-0.1424-0.0305-0.2135v-0.1519c0-0.0913 0.0306-0.2539 0.0915-0.4873 0.071-0.2435 0.1574-0.5226 0.2589-0.8372 0.1116-0.3247 0.2281-0.6644 0.3498-1.0195 0.1218-0.3653 0.2388-0.7104 0.3504-1.0351 0.1218-0.3247 0.228-0.614 0.3194-0.8677 0.0913-0.2638 0.1573-0.4516 0.1979-0.5632 0.1928 0 0.3854-0.0048 0.5782-0.015 0.1725-0.0102 0.3502-0.0155 0.5328-0.0155 0.1827-0.0102 0.3501-0.0252 0.5023-0.0455 0.2233-0.0304 0.4111-0.0712 0.5633-0.122 0.1623-0.0507 0.289-0.1011 0.3803-0.1519 0.2131-0.1015 0.3199-0.198 0.3199-0.2894 0-0.071-0.066-0.1064-0.1979-0.1064-0.0305 0-0.0965 0.0048-0.1979 0.015-0.1015 0-0.2233 0.0054-0.3654 0.0155-0.142 0.0101-0.2945 0.0203-0.4568 0.0305h-1.4764l0.5788-1.5224c0.0406-0.1218 0.076-0.2232 0.1064-0.3044 0.0406-0.0812 0.076-0.1569 0.1065-0.2279 0.0406-0.071 0.076-0.1424 0.1064-0.2134 0.0406-0.071 0.0862-0.1574 0.137-0.2589 0-0.09134-0.0456-0.13696-0.137-0.13696zm-26.575 0.70026 0.0305 0.0155c-0.5378 0.5783-1.0352 1.1209-1.4919 1.6283-0.4464 0.4972-0.8318 0.9335-1.1565 1.3089-0.3856 0.4465-0.7355 0.8528-1.05 1.2181h-0.107c0.5885-0.8118 1.2127-1.5782 1.8722-2.2986 0.6697-0.7205 1.3041-1.3446 1.9027-1.8722zm43.896 1.5373c-0.071 0-0.1627 0.0102-0.2744 0.0305-0.1014 0.0102-0.2077 0.0354-0.3193 0.076-0.1827 0.071-0.3249 0.1574-0.4264 0.2589-0.0913 0.1014-0.1519 0.198-0.1824 0.2894-0.1725 0.5073-0.3807 1.1057-0.6242 1.7957-0.2334 0.69-0.4669 1.385-0.7002 2.0852-0.0609 0.1725-0.1216 0.3603-0.1825 0.5632-0.0507 0.203-0.1017 0.3956-0.1524 0.5783-0.0406 0.1826-0.076 0.3501-0.1065 0.5023-0.0202 0.1522-0.0304 0.2692-0.0304 0.3504 0 0.071 0.0052 0.152 0.0155 0.2433 0.0101 0.0812 0.0353 0.1574 0.0759 0.2285 0.0406 0.071 0.1013 0.1316 0.1824 0.1824 0.0812 0.0507 0.1928 0.0765 0.3349 0.0765 0.071 0 0.1725-0.0156 0.3044-0.046 0.142-0.0203 0.3197-0.0708 0.5328-0.152 0.2232-0.0811 0.4872-0.1981 0.7916-0.3503 0.3045-0.1522 0.6646-0.3551 1.0806-0.6088 0.1826-0.1116 0.3753-0.2383 0.5783-0.3803 0.213-0.1421 0.4213-0.2891 0.6242-0.4413 0.0137-0.0098 0.0266-0.0187 0.0403-0.0285-0.0249 0.1703-0.0403 0.3332-0.0403 0.4848 0 0.416 0.0607 0.746 0.1824 0.9896 0.1218 0.2435 0.3756 0.3653 0.7612 0.3653 0.4161 0 0.8776-0.1626 1.3849-0.4873 0.5175-0.3348 1.0048-0.7862 1.4615-1.3544h0.0609c-0.0203 0.0812-0.046 0.1874-0.0765 0.3193-0.0202 0.1218-0.0401 0.2538-0.0604 0.3959-0.0203 0.1319-0.0407 0.2687-0.061 0.4108-0.0101 0.1421-0.0155 0.2639-0.0155 0.3654 0 0.1928 0.0408 0.35 0.122 0.4718 0.0811 0.1319 0.1976 0.1979 0.3498 0.1979 0.1928 0 0.452-0.0864 0.7767-0.2589 0.3247-0.1624 0.6693-0.3652 1.0346-0.6088 0.3653-0.2435 0.7205-0.4968 1.0655-0.7606 0.3552-0.274 0.6498-0.5177 0.8832-0.7307l-0.1375-0.183c-0.2334 0.1725-0.4716 0.3555-0.7152 0.5483-0.2435 0.1827-0.4818 0.3501-0.7152 0.5023s-0.462 0.2789-0.6852 0.3803c-0.2131 0.0914-0.4106 0.137-0.5932 0.137-0.0812 0-0.1526-0.0306-0.2135-0.0915-0.0507-0.071-0.0759-0.2181-0.0759-0.4413 0-0.1015 0.0762-0.3805 0.2284-0.8372 0.1623-0.4566 0.3604-1.0045 0.5937-1.6438 0.1218-0.3247 0.2334-0.5785 0.3349-0.7612 0.1116-0.1928 0.2077-0.4005 0.2889-0.6237 0.1014-0.0913 0.1878-0.1724 0.2589-0.2434 0.071-0.071 0.1268-0.137 0.1674-0.1979s0.0658-0.1269 0.076-0.1979c0.0203-0.0812 0.0305-0.1778 0.0305-0.2894 0-0.1725-0.0559-0.3147-0.1675-0.4264-0.1014-0.1116-0.2281-0.1975-0.3803-0.2583-0.1421-0.0711-0.2891-0.1167-0.4413-0.137-0.1522-0.0304-0.2794-0.046-0.3809-0.046-0.5581 0-1.1312 0.1218-1.7198 0.3654-0.5885 0.2334-1.2127 0.6648-1.8722 1.294-0.274 0.2638-0.5176 0.5579-0.7307 0.8826s-0.3956 0.6596-0.5478 1.0046-0.2687 0.69-0.3498 1.035c-0.0045 0.0188-6e-3 0.0352-0.0104 0.0538-0.3059 0.2155-0.624 0.431-0.9637 0.6465-0.4059 0.2536-0.8068 0.4769-1.2026 0.6697-0.3855 0.1826-0.6904 0.2739-0.9136 0.2739-0.1725 0-0.2686-0.051-0.2889-0.1525-0.0203-0.1014-0.0305-0.2329-0.0305-0.3953 0-0.0913 0.0408-0.269 0.122-0.5328s0.1826-0.5735 0.3044-0.9286c0.1217-0.3653 0.2532-0.7506 0.3953-1.1565 0.1421-0.4161 0.2741-0.8067 0.3958-1.172 0.0711-0.203 0.1424-0.4112 0.2135-0.6243 0.0811-0.2232 0.152-0.4261 0.2129-0.6087 0.071-0.1827 0.1268-0.3399 0.1674-0.4718 0.0507-0.132 0.076-0.2184 0.076-0.2589 0-0.1117-0.0403-0.1675-0.1215-0.1675zm-22.481 0.137c-0.2029 0-0.4208 0.0155-0.6542 0.046-0.2232 0.0203-0.4363 0.0605-0.6392 0.1214-0.4465 0.1319-0.8119 0.2892-1.0961 0.4718-0.2841 0.1725-0.5073 0.3501-0.6697 0.5328-0.1623 0.1826-0.2788 0.3651-0.3498 0.5478-0.0609 0.1725-0.0915 0.32-0.0915 0.4418 0 0.2334 0.0354 0.4158 0.1064 0.5478 0.0812 0.1217 0.1928 0.2435 0.3349 0.3653 0.2232 0.1928 0.4717 0.3753 0.7457 0.5478 0.274 0.1623 0.5584 0.3502 0.8527 0.5633 0.1522 0.1116 0.2638 0.2382 0.3348 0.3803 0.0812 0.1319 0.1215 0.2993 0.1215 0.5023 0 0.1928-0.0505 0.3758-0.152 0.5483-0.0913 0.1623-0.218 0.304-0.3803 0.4258-0.1624 0.1218-0.3555 0.2183-0.5788 0.2894-0.2131 0.0609-0.4465 0.0914-0.7002 0.0914-0.2232 0-0.4159-0.0305-0.5783-0.0914-0.1522-0.0609-0.2788-0.1419-0.3803-0.2434-0.1015-0.1116-0.1825-0.2335-0.2434-0.3654s-0.107-0.2741-0.1374-0.4263c-0.0812 0-0.1875 0.0354-0.3194 0.1065-0.1319 0.071-0.2285 0.1268-0.2894 0.1674-0.1319 0.0812-0.2382 0.1778-0.3194 0.2894-0.0913 0.1014-0.1471 0.2077-0.1674 0.3193 0.0203 0.1319 0.081 0.2538 0.1824 0.3654 0.1015 0.1116 0.2287 0.2082 0.3809 0.2894 0.1522 0.0811 0.3143 0.1418 0.4868 0.1824 0.1826 0.0507 0.3651 0.0765 0.5477 0.0765 0.3349 0 0.5941-0.0156 0.7767-0.046 0.1928-0.0203 0.3903-0.0659 0.5933-0.137 0.3348-0.1116 0.6445-0.2635 0.9286-0.4563 0.2943-0.2029 0.5481-0.416 0.7612-0.6392 0.2131-0.2334 0.3752-0.4668 0.4868-0.7002 0.1218-0.2436 0.1829-0.462 0.1829-0.6548 0-0.1725-0.0257-0.3243-0.0765-0.4563-0.0507-0.142-0.1521-0.2842-0.3043-0.4263-0.1116-0.1015-0.2437-0.2029-0.3959-0.3044-0.1522-0.1116-0.3143-0.2232-0.4868-0.3348l-0.5172-0.3349c-0.1725-0.1116-0.3249-0.2232-0.4569-0.3349-0.1826-0.1522-0.2738-0.3448-0.2738-0.5782 0-0.1928 0.0456-0.3602 0.1369-0.5023 0.1015-0.1421 0.2281-0.259 0.3803-0.3504 0.1522-0.0913 0.3148-0.1573 0.4873-0.1979 0.1827-0.0406 0.3501-0.061 0.5023-0.061 0.1015 0 0.218 0.0102 0.3499 0.0305s0.2586 0.0557 0.3803 0.1065c0.1218 0.0406 0.2237 0.1017 0.3049 0.1829 0.0913 0.071 0.152 0.1623 0.1824 0.2739 0.2436-0.0812 0.4362-0.1778 0.5783-0.2894 0.1522-0.1116 0.274-0.2887 0.3653-0.5323-0.0913-0.0608-0.1975-0.1167-0.3193-0.1674-0.1116-0.0507-0.2436-0.0915-0.3959-0.122-0.1522-0.0405-0.325-0.0609-0.5178-0.0609zm18.417 0c-0.203 0-0.4208 0.0155-0.6542 0.046-0.2233 0.0203-0.4363 0.0605-0.6393 0.1214-0.4464 0.1319-0.8119 0.2892-1.096 0.4718-0.2841 0.1725-0.5074 0.3501-0.6698 0.5328-0.1623 0.1826-0.2788 0.3651-0.3498 0.5478-0.0609 0.1725-0.0915 0.32-0.0915 0.4418 0 0.2334 0.0355 0.4158 0.1065 0.5478 0.0812 0.1217 0.1928 0.2435 0.3348 0.3653 0.2233 0.1928 0.4718 0.3753 0.7457 0.5478 0.274 0.1623 0.5584 0.3502 0.8527 0.5633 0.1522 0.1116 0.2638 0.2382 0.3349 0.3803 0.0811 0.1319 0.1214 0.2993 0.1214 0.5023 0 0.1928-0.0505 0.3758-0.1519 0.5483-0.0913 0.1623-0.218 0.304-0.3804 0.4258-0.1623 0.1218-0.3555 0.2183-0.5787 0.2894-0.2131 0.0609-0.4466 0.0914-0.7003 0.0914-0.2232 0-0.4159-0.0305-0.5782-0.0914-0.1522-0.0609-0.2789-0.1419-0.3804-0.2434-0.1014-0.1116-0.1825-0.2335-0.2433-0.3654-0.0609-0.1319-0.1071-0.2741-0.1375-0.4263-0.0812 0-0.1874 0.0354-0.3194 0.1065-0.1319 0.071-0.2285 0.1268-0.2894 0.1674-0.1319 0.0812-0.2381 0.1778-0.3193 0.2894-0.0913 0.1014-0.1472 0.2077-0.1674 0.3193 0.0202 0.1319 0.0809 0.2538 0.1824 0.3654 0.1014 0.1116 0.2286 0.2082 0.3808 0.2894 0.1522 0.0811 0.3143 0.1418 0.4868 0.1824 0.1827 0.0507 0.3651 0.0765 0.5478 0.0765 0.3348 0 0.594-0.0156 0.7767-0.046 0.1928-0.0203 0.3903-0.0659 0.5932-0.137 0.3349-0.1116 0.6445-0.2635 0.9287-0.4563 0.2942-0.2029 0.5481-0.416 0.7611-0.6392 0.2131-0.2334 0.3752-0.4668 0.4868-0.7002 0.1218-0.2436 0.183-0.462 0.183-0.6548 0-0.1725-0.0258-0.3243-0.0765-0.4563-0.0507-0.142-0.1522-0.2842-0.3044-0.4263-0.1116-0.1015-0.2431-0.2029-0.3953-0.3044-0.1522-0.1116-0.3148-0.2232-0.4873-0.3348l-0.5173-0.3349c-0.1725-0.1116-0.3249-0.2232-0.4568-0.3349-0.1827-0.1522-0.2739-0.3448-0.2739-0.5782 0-0.1928 0.0456-0.3602 0.1369-0.5023 0.1015-0.1421 0.2282-0.259 0.3804-0.3504 0.1522-0.0913 0.3148-0.1573 0.4873-0.1979 0.1826-0.0406 0.3501-0.061 0.5023-0.061 0.1015 0 0.2179 0.0102 0.3498 0.0305s0.2586 0.0557 0.3804 0.1065c0.1217 0.0406 0.2237 0.1017 0.3049 0.1829 0.0913 0.071 0.1519 0.1623 0.1824 0.2739 0.2435-0.0812 0.4362-0.1778 0.5782-0.2894 0.1522-0.1116 0.2741-0.2887 0.3654-0.5323-0.0913-0.0608-0.1976-0.1167-0.3194-0.1674-0.1116-0.0507-0.2436-0.0915-0.3958-0.122-0.1522-0.0405-0.325-0.0609-0.5178-0.0609zm-34.733 0.0155c-0.0711 0-0.1725 0.0199-0.3044 0.0604-0.1218 0.0406-0.2538 0.1018-0.3959 0.183-0.1319 0.071-0.2585 0.1671-0.3803 0.2888-0.1116 0.1218-0.1878 0.264-0.2284 0.4264-0.0203 0.0507-0.0455 0.1371-0.076 0.2589-0.0304 0.1217-0.0664 0.2586-0.1069 0.4108-0.0406 0.1522-0.0809 0.3094-0.1215 0.4718-0.0406 0.1522-0.0814 0.2944-0.1219 0.4263l-0.6088 2.1007c-0.0203 0.071-0.0611 0.1724-0.1219 0.3043-0.0508 0.1218-0.1168 0.2689-0.198 0.4414-0.1928 0.4464-0.2888 0.7813-0.2888 1.0046 0 0.0507 0.0048 0.1113 0.015 0.1824 0.0202 0.071 0.0814 0.1064 0.1829 0.1064 0.0913 0 0.1724-0.015 0.2434-0.0455 0.0812-0.0304 0.1622-0.091 0.2434-0.1824 0.0812-0.0913 0.1724-0.2233 0.2739-0.3958 0.1116-0.1827 0.2388-0.4263 0.3808-0.7307 0.1421-0.2943 0.294-0.5782 0.4563-0.8522 0.1725-0.2739 0.4011-0.5836 0.6852-0.9286 0.2233-0.274 0.4514-0.538 0.6848-0.7917 0.2435-0.2536 0.4667-0.4769 0.6697-0.6697 0.2029-0.1928 0.3806-0.3447 0.5328-0.4563 0.1623-0.1218 0.274-0.1829 0.3348-0.1829 0.0812 0 0.1268 0.0257 0.137 0.0765 0.0101 0.0405 0.0155 0.1114 0.0155 0.2129 0 0.0406-0.0204 0.142-0.061 0.3043-0.0406 0.1522-0.0964 0.3449-0.1674 0.5783-0.0609 0.2334-0.1371 0.4974-0.2284 0.7917-0.0812 0.2841-0.1676 0.5782-0.2589 0.8826-0.0711 0.2435-0.1468 0.4974-0.2279 0.7612-0.0711 0.2638-0.1424 0.5123-0.2135 0.7457-0.0608 0.2334-0.1113 0.4416-0.1519 0.6242-0.0406 0.1827-0.061 0.3142-0.061 0.3954 0 0.0811 0.0102 0.1525 0.0305 0.2134 0.0305 0.071 0.0863 0.1064 0.1675 0.1064 0.3348 0 1.0298-0.3397 2.0851-1.0195 0.1218-0.0812 0.2892-0.1928 0.5023-0.3349s0.431-0.2896 0.6542-0.4418c0.0344-0.025 0.0625-0.0458 0.0961-0.0703-0.0118 0.1137-0.0196 0.2244-0.0196 0.3292 0 0.416 0.0606 0.746 0.1824 0.9896 0.1218 0.2435 0.3756 0.3653 0.7612 0.3653 0.416 0 0.8776-0.1626 1.3849-0.4873 0.5175-0.3348 1.0048-0.7862 1.4614-1.3544h0.0605c-0.0203 0.0812-0.0455 0.1874-0.076 0.3193-0.0203 0.1218-0.0407 0.2538-0.0609 0.3959-0.0203 0.1319-0.0402 0.2687-0.0605 0.4108-0.0102 0.1421-0.0155 0.2639-0.0155 0.3654 0 0.1928 0.0408 0.35 0.122 0.4718 0.0811 0.1319 0.1976 0.1979 0.3498 0.1979 0.1928 0 0.4515-0.0864 0.7762-0.2589 0.3247-0.1624 0.6698-0.3652 1.0351-0.6088 0.3653-0.2435 0.7205-0.4968 1.0655-0.7606 0.3552-0.274 0.6493-0.5177 0.8827-0.7307l-0.137-0.183c-0.2334 0.1725-0.4717 0.3555-0.7152 0.5483-0.2435 0.1827-0.4823 0.3501-0.7157 0.5023s-0.4615 0.2789-0.6847 0.3803c-0.2131 0.0914-0.4111 0.137-0.5938 0.137-0.0812 0-0.152-0.0306-0.2129-0.0915-0.0507-0.071-0.0759-0.2181-0.0759-0.4413 0-0.1015 0.0762-0.3805 0.2284-0.8372 0.1623-0.4566 0.3598-1.0045 0.5932-1.6438 0.1218-0.3247 0.2334-0.5785 0.3349-0.7612 0.1116-0.1928 0.2082-0.4005 0.2894-0.6237 0.1014-0.0913 0.1878-0.1724 0.2589-0.2434 0.071-0.071 0.1268-0.137 0.1674-0.1979s0.0658-0.1269 0.076-0.1979c0.0202-0.0812 0.0304-0.1778 0.0304-0.2894 0-0.1725-0.0558-0.3147-0.1674-0.4264-0.1015-0.1116-0.2286-0.1975-0.3808-0.2583-0.1421-0.0711-0.2892-0.1167-0.4414-0.137-0.1522-0.0304-0.2788-0.046-0.3803-0.046-0.5581 0-1.1313 0.1218-1.7198 0.3654-0.5885 0.2334-1.2127 0.6648-1.8722 1.294-0.274 0.2638-0.5176 0.5579-0.7307 0.8826s-0.3956 0.6596-0.5478 1.0046-0.2692 0.69-0.3504 1.035c-0.0152 0.0628-0.0217 0.1192-0.0341 0.1799-0.0099 0.0067-0.0168 0.0113-0.0268 0.0181-0.274 0.1928-0.5477 0.3752-0.8217 0.5477-0.2638 0.1725-0.5123 0.3196-0.7457 0.4414-0.2334 0.1116-0.4164 0.1674-0.5483 0.1674-0.071 0-0.1113-0.0199-0.1214-0.0605-0.0102-0.0406-0.0155-0.0964-0.0155-0.1674 0-0.0507 0.0306-0.1779 0.0915-0.3809 0.0608-0.2131 0.1317-0.4465 0.2129-0.7002 0.0811-0.2537 0.1573-0.4968 0.2284-0.7302 0.0811-0.2435 0.137-0.4265 0.1674-0.5482 0.2029-0.6698 0.3806-1.258 0.5328-1.7653 0.1623-0.5175 0.2536-0.9082 0.2739-1.172 0.0101-0.0812-1e-4 -0.1472-0.0305-0.198-0.0203-0.0608-0.0708-0.0914-0.1519-0.0914-0.1624 0-0.3857 0.081-0.6698 0.2434-0.2841 0.1522-0.6088 0.3754-0.9741 0.6697-0.3551 0.2841-0.7458 0.6244-1.172 1.0201-0.416 0.3957-0.8421 0.832-1.2785 1.309h-0.046c0.0609-0.1725 0.1119-0.3298 0.1525-0.4719 0.0507-0.142 0.1012-0.2896 0.1519-0.4418 0.0609-0.1623 0.1221-0.3395 0.1829-0.5323 0.0609-0.1927 0.1371-0.4315 0.2285-0.7157 0.071-0.2131 0.1418-0.431 0.2129-0.6542 0.0811-0.2334 0.1268-0.3906 0.1369-0.4718 0-0.1116-0.0354-0.1674-0.1064-0.1674zm8.8888 0.6237c0.0406 0 0.1066 0.0102 0.1979 0.0305s0.1826 0.0557 0.2739 0.1064c0.0913 0.0406 0.1724 0.0916 0.2434 0.1525s0.1167 0.1269 0.1369 0.1979c-0.0811 0-0.167 0.0403-0.2583 0.1215-0.0812 0.071-0.1676 0.1627-0.2589 0.2744-0.0812 0.1014-0.1574 0.2131-0.2284 0.3348-0.0609 0.1218-0.1065 0.2232-0.137 0.3044-0.1015 0.2334-0.198 0.492-0.2894 0.7762-0.0812 0.2739-0.1976 0.5734-0.3498 0.8981-0.3552 0.761-0.7507 1.3138-1.187 1.6588-0.4364 0.3349-0.827 0.5023-1.172 0.5023-0.1421 0-0.2795-0.0558-0.4114-0.1674-0.1218-0.1218-0.1824-0.345-0.1824-0.6697 0-0.1523 0.0204-0.3449 0.061-0.5783 0.0507-0.2435 0.1167-0.492 0.1979-0.7457 0.0913-0.2638 0.1874-0.523 0.2889-0.7767 0.1116-0.2537 0.2286-0.4716 0.3503-0.6542 0.2233-0.3349 0.4412-0.6139 0.6542-0.8372 0.2131-0.2232 0.4262-0.4008 0.6393-0.5328 0.2232-0.142 0.4518-0.2434 0.6852-0.3043s0.4819-0.0915 0.7457-0.0915zm18.417 0c0.0406 0 0.1066 0.0102 0.198 0.0305 0.0913 0.0203 0.1825 0.0557 0.2739 0.1064 0.0913 0.0406 0.1723 0.0916 0.2433 0.1525 0.0711 0.0609 0.1167 0.1269 0.137 0.1979-0.0812 0-0.1671 0.0403-0.2584 0.1215-0.0812 0.071-0.1676 0.1627-0.2589 0.2744-0.0812 0.1014-0.1574 0.2131-0.2284 0.3348-0.0609 0.1218-0.1065 0.2232-0.1369 0.3044-0.1015 0.2334-0.1981 0.492-0.2894 0.7762-0.0812 0.2739-0.1977 0.5734-0.3499 0.8981-0.3551 0.761-0.7507 1.3138-1.187 1.6588-0.4363 0.3349-0.827 0.5023-1.172 0.5023-0.1421 0-0.2794-0.0558-0.4113-0.1674-0.1218-0.1218-0.1825-0.345-0.1825-0.6697 0-0.1523 0.0204-0.3449 0.061-0.5783 0.0507-0.2435 0.1168-0.492 0.1979-0.7457 0.0913-0.2638 0.1874-0.523 0.2889-0.7767 0.1116-0.2537 0.2286-0.4716 0.3504-0.6542 0.2232-0.3349 0.4411-0.6139 0.6542-0.8372 0.2131-0.2232 0.4261-0.4008 0.6392-0.5328 0.2233-0.142 0.4519-0.2434 0.6853-0.3043 0.2333-0.0609 0.4818-0.0915 0.7456-0.0915zm17.854 0c0.0406 0 0.1066 0.0102 0.1979 0.0305 0.0914 0.0203 0.1826 0.0557 0.2739 0.1064 0.0913 0.0406 0.1729 0.0916 0.2439 0.1525 0.0711 0.0609 0.1167 0.1269 0.137 0.1979-0.0812 0-0.1676 0.0403-0.2589 0.1215-0.0812 0.071-0.1676 0.1627-0.2589 0.2744-0.0812 0.1014-0.1574 0.2131-0.2284 0.3348-0.0609 0.1218-0.1065 0.2232-0.137 0.3044-0.1014 0.2334-0.1975 0.492-0.2888 0.7762-0.0812 0.2739-0.1982 0.5734-0.3504 0.8981-0.3552 0.761-0.7507 1.3138-1.187 1.6588-0.4363 0.3349-0.827 0.5023-1.172 0.5023-0.1421 0-0.279-0.0558-0.4109-0.1674-0.1217-0.1218-0.1829-0.345-0.1829-0.6697 0-0.1523 0.0204-0.3449 0.061-0.5783 0.0507-0.2435 0.1167-0.492 0.1979-0.7457 0.0913-0.2638 0.1879-0.523 0.2894-0.7767 0.1116-0.2537 0.2281-0.4716 0.3498-0.6542 0.2233-0.3349 0.4417-0.6139 0.6548-0.8372 0.2131-0.2232 0.4261-0.4008 0.6392-0.5328 0.2233-0.142 0.4513-0.2434 0.6847-0.3043s0.4819-0.0915 0.7457-0.0915zm-52.435 2.557c0.2233 0.0202 0.4009 0.0304 0.5328 0.0304h0.7002c0.1218-0.0101 0.2839-0.0149 0.4868-0.0149-0.0812 0.2942-0.1418 0.5175-0.1824 0.6697-0.0304 0.142-0.0557 0.2483-0.076 0.3193-0.0202 0.0609-0.0358 0.1017-0.0459 0.122l-0.0455 0.0915c-0.1015-0.1522-0.2335-0.2993-0.3959-0.4414-0.1522-0.1522-0.2992-0.2842-0.4413-0.3958-0.1725-0.1319-0.3501-0.2591-0.5328-0.3808zm124.94 11.473h2e-3c0 0.8154-0.332 2.1671-0.996 4.054-0.665 1.888-1.182 3.7106-1.553 5.4689-0.372 1.7594-0.694 6.3694-0.967 13.833-4.181 0.3858-7.657 1.1581-10.432 2.3161-2.774 1.1585-5.265 2.4774-7.473 3.9574-1.305 0.8749-2.705 1.9922-4.195 3.3398-0.014-7.6909-0.017-14.451-5e-3 -19.777 2.486-1.0601 5.541-2.4672 9.21-4.2483 6.76-4.3321 12.228-7.3129 16.409-8.9437zm-3.514 25.994v41.756c-0.351 3.0881-0.988 5.1699-1.905 6.2417-0.919 1.073-1.963 1.716-3.135 1.93-1.155 0.212-2.972 0.349-5.437 0.414l1.011-3.3731c-1.329 0.8151-2.462 1.5981-3.4 2.3481-0.65 0.52-1.295 0.956-1.936 1.312-1.016 0.111-2.012 0.251-2.985 0.424-0.375 0.067-0.738 0.147-1.094 0.231-0.66-0.242-1.303-0.703-1.926-1.388-0.802-0.879-1.231-14.197-1.29-39.955v-2.1652c1.466-1.0399 2.844-1.9887 4.107-2.821 2.149-1.4152 4.855-2.5949 8.117-3.5388 3.262-0.9428 6.552-1.4153 9.873-1.4154z"/>
 </g>
</svg>
