<svg width="884" height="1279" viewBox="0 0 884 1279" xmlns="http://www.w3.org/2000/svg">
    <path
        d="m472.62 590.84c-45.941 19.667-98.077 41.966-165.65 41.966-28.266-0.056-56.396-3.934-83.623-11.528l46.733 479.81c1.654 20.05 10.79 38.75 25.593 52.38s34.191 21.19 54.313 21.19c0 0 66.262 3.44 88.373 3.44 23.796 0 95.151-3.44 95.151-3.44 20.12 0 39.503-7.57 54.303-21.2s23.933-32.32 25.587-52.37l50.053-530.2c-22.368-7.639-44.943-12.715-70.391-12.715-44.014-0.017-79.477 15.142-120.44 32.675z" />
    <path
        d="m879.57 341.85-7.037-35.497c-6.315-31.849-20.648-61.943-53.34-73.454-10.479-3.683-22.369-5.265-30.404-12.888-8.035-7.622-10.41-19.46-12.268-30.438-3.442-20.149-6.676-40.315-10.204-60.429-3.045-17.293-5.454-36.719-13.386-52.583-10.324-21.302-31.746-33.759-53.048-42.001-10.915-4.0746-22.054-7.5215-33.363-10.324-53.22-14.04-109.18-19.202-163.93-22.145-65.716-3.6262-131.61-2.5337-197.17 3.2692-48.797 4.4393-100.19 9.8077-146.56 26.687-16.948 6.1771-34.413 13.593-47.3 26.687-15.813 16.088-20.975 40.968-9.43 61.031 8.208 14.247 22.111 24.313 36.857 30.972 19.207 8.58 39.266 15.109 59.844 19.478 57.297 12.664 116.64 17.636 175.18 19.753 64.88 2.618 129.86 0.496 194.43-6.35 15.968-1.755 31.907-3.86 47.817-6.314 18.738-2.874 30.765-27.376 25.242-44.445-6.608-20.406-24.365-28.321-44.444-25.241-2.96 0.464-5.902 0.894-8.862 1.324l-2.133 0.31c-6.803 0.861-13.605 1.663-20.407 2.409-14.052 1.514-28.138 2.753-42.259 3.717-31.626 2.202-63.337 3.217-95.031 3.269-31.144 0-62.305-0.878-93.38-2.925-14.178-0.929-28.322-2.111-42.431-3.545-6.418-0.671-12.819-1.376-19.219-2.168l-6.092-0.774-1.324-0.189-6.315-0.912c-12.905-1.945-25.81-4.181-38.577-6.883-1.288-0.286-2.441-1.002-3.267-2.0317-0.826-1.0292-1.276-2.3094-1.276-3.629 0-1.3197 0.45-2.5999 1.276-3.6291 0.826-1.0293 1.979-1.746 3.267-2.0319h0.241c11.064-2.3572 22.213-4.3704 33.397-6.1255 3.729-0.585 7.468-1.1585 11.219-1.7206h0.103c7.003-0.4646 14.041-1.7207 21.009-2.5466 60.63-6.3064 121.62-8.4565 182.54-6.4352 29.577 0.8604 59.138 2.5982 88.578 5.5921 6.332 0.6539 12.63 1.3422 18.927 2.1164 2.409 0.2926 4.835 0.6366 7.262 0.9292l4.886 0.7054c14.247 2.1222 28.419 4.6974 42.517 7.7258 20.889 4.5425 47.714 6.0222 57.005 28.907 2.96 7.261 4.302 15.331 5.936 22.953l2.082 9.722c0.055 0.174 0.095 0.353 0.121 0.533 4.921 22.942 9.848 45.884 14.78 68.826 0.362 1.695 0.37 3.446 0.025 5.144-0.345 1.699-1.036 3.307-2.031 4.727-0.994 1.419-2.271 2.618-3.749 3.522-1.479 0.904-3.127 1.493-4.844 1.732h-0.138l-3.011 0.413-2.976 0.395c-9.43 1.228-18.87 2.375-28.322 3.442-18.618 2.122-37.264 3.957-55.938 5.506-37.109 3.085-74.292 5.11-111.55 6.074-18.984 0.504-37.963 0.74-56.936 0.705-75.519-0.059-150.97-4.449-225.99-13.146-8.122-0.963-16.243-1.996-24.365-3.045 6.298 0.809-4.577-0.62-6.779-0.929-5.162-0.723-10.324-1.474-15.486-2.254-17.327-2.599-34.55-5.799-51.843-8.604-20.906-3.441-40.9-1.72-59.809 8.604-15.522 8.494-28.085 21.519-36.013 37.338-8.1559 16.862-10.582 35.221-14.23 53.34-3.6478 18.118-9.3259 37.613-7.1751 56.213 4.6285 40.143 32.692 72.766 73.059 80.062 37.975 6.882 76.156 12.457 114.44 17.206 150.39 18.419 302.32 20.622 453.18 6.573 12.285-1.147 24.553-2.397 36.804-3.751 3.827-0.42 7.699 0.02 11.333 1.29s6.938 3.337 9.67 6.049 4.822 6.001 6.118 9.625c1.297 3.625 1.766 7.494 1.373 11.323l-3.82 37.132c-7.697 75.031-15.394 150.06-23.091 225.08-8.029 78.783-16.111 157.56-24.244 236.33-2.294 22.19-4.588 44.37-6.882 66.54-2.203 21.84-2.512 44.36-6.659 65.94-6.539 33.93-29.509 54.77-63.027 62.39-30.708 6.99-62.078 10.66-93.569 10.94-34.912 0.19-69.806-1.36-104.72-1.17-37.27 0.21-82.918-3.23-111.69-30.97-25.277-24.36-28.77-62.51-32.211-95.5-4.588-43.67-9.136-87.331-13.645-130.99l-25.293-242.77-16.363-157.08c-0.276-2.598-0.551-5.162-0.809-7.778-1.962-18.737-15.228-37.079-36.134-36.133-17.894 0.791-38.232 16.002-36.133 36.133l12.13 116.45 25.087 240.89c7.147 68.424 14.276 136.86 21.388 205.31 1.377 13.11 2.667 26.26 4.112 39.37 7.864 71.65 62.58 110.26 130.34 121.13 39.575 6.37 80.113 7.68 120.27 8.33 51.482 0.83 103.48 2.81 154.12-6.52 75.038-13.77 131.34-63.87 139.37-141.59 2.295-22.44 4.589-44.88 6.883-67.33 7.628-74.241 15.245-148.49 22.85-222.74l24.881-242.61 11.408-111.19c0.568-5.514 2.896-10.698 6.64-14.785 3.743-4.087 8.703-6.861 14.145-7.911 21.456-4.181 41.967-11.322 57.229-27.651 24.295-25.998 29.13-59.895 20.544-94.067zm-807.14 23.986c0.3269-0.155-0.2753 2.649-0.5334 3.957-0.0516-1.979 0.0516-3.734 0.5334-3.957zm2.082 16.105c0.1721-0.121 0.6882 0.568 1.2216 1.394-0.8087-0.758-1.3248-1.325-1.2388-1.394zm2.0476 2.701c0.7399 1.256 1.1356 2.048 0 0zm4.1123 3.338h0.1032c0 0.121 0.1893 0.241 0.2581 0.362-0.1141-0.133-0.2408-0.254-0.3785-0.362zm720.12-4.99c-7.708 7.33-19.323 10.737-30.8 12.441-128.7 19.099-259.28 28.769-389.4 24.502-93.121-3.183-185.26-13.525-277.45-26.55-9.0338-1.273-18.824-2.925-25.036-9.584-11.7-12.561-5.9534-37.854-2.9079-53.03 2.7875-13.903 8.1215-32.434 24.657-34.413 25.81-3.028 55.783 7.863 81.318 11.735 30.742 4.691 61.599 8.448 92.57 11.27 132.18 12.045 266.58 10.169 398.18-7.45 23.985-3.224 47.885-6.969 71.699-11.236 21.216-3.803 44.737-10.943 57.556 11.029 8.792 14.97 9.962 34.998 8.603 51.912-0.419 7.369-3.639 14.3-8.999 19.374z" />
</svg>