<svg width="80" height="80" version="1.1" viewBox="0 0 80 80" xml:space="preserve" xmlns="http://www.w3.org/2000/svg">
    <path
        d="m18.205 23.624c-1.6511-1.3162 0.1237-3.933 1.861-4.1114 1.5999 0.1119 0.9364 2.5518 0.1194 3.3233-0.4779 0.6627-1.1296 1.2655-1.9804 0.7881zm39.785-13.502c-1.5288-0.91672-1.388-4.7014 0.5022-4.6678 1.2966 1.0003 1.8423 3.1738 0.5772 4.4319-0.4482 0.01273-0.6102 0.61809-1.0794 0.23599zm-14.551-4.2474c-1.509-1.5938 0.352-3.5465 1.9391-4.0976 2.2703 0.15234 0.2559 4.2212-1.4697 4.2155l-0.3367-0.02723-0.1327-0.09075zm-28.68 41.105c-2.2969-0.467-5.1092-1.1299-6.0958-3.5981-0.86677-1.699-1.3964-3.8052-1.1012-5.8489 0.21095-2.602 1.8722-4.7259 3.6781-6.548 1.7653-1.6772 3.7888-2.8572 5.9571-3.7248 1.892-0.7718 4.0965-0.354 5.1901 1.4635 2.1336 2.9012 2.9722 6.5 2.8112 10.009-0.1081 2.3567-0.6982 5.0223-2.8074 6.4299-1.8915 1.8291-5.0651 2.1065-7.6322 1.8175zm54.961-8.4182c-1.364-1.1069-1.142-3.4517 0.2391-4.4932 2.4203-0.2183 2.5655 5.2016-0.2391 4.4932zm-6.3915 22.579c-3.878-1.0172-8.1147-3.6748-8.5619-7.9652-0.0761-4.3553 2.9086-7.915 6.0596-10.648 2.2571-1.9149 6.4113-3.4926 8.2359-0.1803 2.821 3.433 4.0272 8.1072 3.2069 12.483-1.2496 3.6797-4.7718 7.0811-8.9405 6.3103zm-17.855 16.808c-4.9644-0.9028-7.9458-5.4598-12.113-7.7519-4.9284-0.809-9.9372 1.6167-14.787-0.0112-2.7364-0.8349-5.6523-2.5486-6.1355-5.6129-1.1533-5.3921 0.511-11.875 5.5078-14.77 2.1646-1.3161 4.5307-2.127 7.0499-2.4344 2.5821-0.3487 3.9745-4.3532 6.6846-5.5008 2.5515-1.6215 5.3444-2.7925 8.4315-2.4087 3.5676 0.0716 6.473 2.9398 8.2038 5.8999 1.4951 2.6003 2.2488 5.5794 2.4323 8.6161 1.91 2.3431 5.0791 4.3565 5.9276 7.5448 1.3099 2.9433 1.4082 6.4217-0.0026 9.3548-1.091 3.1031-3.3935 6.5132-6.7897 7.2873-1.4685 0.1212-2.9616 0.0667-4.4098-0.2133zm8.2845-37.418c-4.4819-0.9281-7.7033-5.3942-7.2645-9.9415-0.2148-3.6308 0.7683-7.1594 1.8263-10.557 1.2024-3.3321 3.3246-6.4187 6.6648-8.0184 3.091-2.2345 6.5597 0.424 8.1076 3.1839 2.1772 4.207 2.8891 9.0737 2.5112 13.818 0.1351 5.7-4.4392 11.471-10.369 11.531-0.4917 0.0148-0.9856 0.0315-1.4762-0.0165zm-20.319-6.0264c-5.5389-0.5719-9.0114-6.6978-7.9359-11.919 0.5962-3.9305 3.0182-7.0648 5.3798-10.213 3.0695-3.0658 6.7815-6.501 11.466-5.7928 2.733 0.81222 3.8077 4.0216 4.4861 6.5029 0.6895 3.2906-0.241 6.6739-1.1188 9.8394-1.6201 4.3128-3.6559 9.3497-8.3447 11.04-1.2367 0.3336-2.6486 0.9-3.9327 0.5423z" />
</svg>