<svg xmlns="http://www.w3.org/2000/svg" viewBox="0 0 24 24">
    <path
        d="M3.289,3.108L3.289,3.108l16.176-0.001c0.363,0.689,1.076,1.15,1.897,1.151c1.178,0,2.137-0.955,2.137-2.13C23.498,0.953,22.541,0.001,21.362,0c-0.893,0-1.66,0.55-1.977,1.329H3.288C1.726,1.329,0.5,2.51,0.5,4.019v17.156C0.5,22.706,1.778,24,3.289,24h17.219c1.516,0,2.748-1.267,2.748-2.825V10.998c0-1.532-1.233-2.78-2.748-2.78H10.294c-1.559,0-2.877,1.274-2.877,2.78v3.198c0,1.484,1.291,2.691,2.877,2.691h3.567c0.326,0.785,1.089,1.328,1.979,1.329c1.178,0,2.137-0.956,2.137-2.13c0-1.174-0.959-2.129-2.138-2.129c-0.821,0.001-1.534,0.463-1.89,1.14l-0.006,0.012h-3.65c-0.525,0-1.092-0.349-1.092-0.913v-3.198c0-0.524,0.521-1,1.092-1h10.215c0.54,0,0.964,0.439,0.964,1v10.177c0,0.567-0.442,1.047-0.964,1.047H3.289c-0.535,0-1.004-0.49-1.004-1.047V4.02C2.286,3.5,2.717,3.108,3.289,3.108z M21.362,1.11c0.564,0,1.021,0.456,1.021,1.018c0,0.562-0.457,1.018-1.021,1.018c-0.564,0-1.022-0.456-1.022-1.018C20.341,1.566,20.799,1.11,21.362,1.11z M15.838,15.069h0.002c0.564,0,1.021,0.456,1.021,1.018s-0.458,1.018-1.022,1.018c0,0,0,0-0.001,0c-0.564,0-1.022-0.456-1.022-1.018S15.274,15.069,15.838,15.069z" />
</svg>