<svg width="607.53" height="607.53" version="1.1" viewBox="0 0 607.53 607.53" xml:space="preserve"
    xmlns="http://www.w3.org/2000/svg">
    <path
        d="m21.363 110.36c-15.287 0-21.144 14.926-21.201 22.402-0.007867 0.975 0.027346 4.875 0.027346 4.875s-0.72013 194.42 0.64453 298.26c4.1468 61.304 65.568 61.283 65.568 61.283s200.54-0.588 296.71-1.185c4.512-0.03 9.017-0.515 13.393-1.61 54.757-13.7 60.422-64.57 59.838-92.927 110.06 6.115 187.72-71.552 168.16-174.9-8.426-44.499-32.381-72.218-56.93-89.359-25.388-17.725-55.799-26.834-86.762-26.834zm416.95 74.097h28.883c19.088 0 37.504 7.949 49.957 22.414 8.769 10.184 15.783 24.516 15.783 44.315 0 48.398-24.939 67.467-52.08 76.267-23.473 2.933-42.543 0.731-42.543 0.731zm-165.9 16.959c10.481-1.313 21.978-0.247 34.01 4.93 48.129 20.709 46.303 76.132 18.277 109.02-31.508 36.764-101.45 100.6-101.45 100.6s-3.054 2.991-7.834 0.584c-1.922-1.421-2.74-2.273-2.74-2.273-11.213-11.153-85.204-77.101-102.04-100.02-17.933-24.415-26.324-68.286-2.289-93.846 24.038-25.56 76.012-27.471 110.35 10.297 0 0 22.274-25.353 53.714-29.293z" />
</svg>