<svg width="256" height="257" viewBox="0 0 256 257" xmlns="http://www.w3.org/2000/svg">
    <path
        d="m53.344 0.31055c-28.798 0-52.459 23.661-52.459 52.459v146.89c2e-8 31.116 25.54 56.656 56.656 56.656h61.902c31.115 0 56.654-25.54 56.654-56.656v-20.984h31.477c26.481 0 48.262-21.782 48.262-48.262v-77.641c0-28.798-23.661-52.459-52.459-52.459h-122.75zm0 14.689h28.328v67.148h-66.098v-29.379c0-20.86 16.909-37.77 37.77-37.77zm41.967 0h66.1v67.148h-66.1zm79.738 0h28.328c20.86 0 37.77 16.909 37.77 37.77v29.379h-66.098zm-159.47 81.836h66.098v67.148h-66.098zm79.736 0h66.1v67.148h-66.1zm79.738 0h66.098v33.574c0 18.542-15.03 33.574-33.572 33.574h-32.525zm-159.47 81.836h66.098v62.951h-24.131c-23.178 0-41.967-18.789-41.967-41.967zm79.736 0h66.1v20.984c0 23.178-18.79 41.967-41.967 41.967h-24.133z" />
</svg>