<svg xmlns="http://www.w3.org/2000/svg" viewBox="0 0 640 640">
    <path
        d="m 109.16668,193.50001 h 84.33333 V 109.16668 H 109.16668 Z M 24.833353,88.083349 c 0,-34.919268 28.330728,-63.249996 63.249996,-63.249996 H 214.58334 c 34.91927,0 63.25,28.330728 63.25,63.249996 V 214.58334 c 0,34.91927 -28.33073,63.25 -63.25,63.25 H 88.083349 c -34.919268,0 -63.249996,-28.33073 -63.249996,-63.25 z M 109.16668,530.83332 h 84.33333 V 446.49999 H 109.16668 Z M 24.833353,425.41666 c 0,-34.91927 28.330728,-63.24999 63.249996,-63.24999 H 214.58334 c 34.91927,0 63.25,28.33072 63.25,63.24999 v 126.49999 c 0,34.91927 -28.33073,63.25 -63.25,63.25 H 88.083349 c -34.919268,0 -63.249996,-28.33073 -63.249996,-63.25 z M 446.49999,109.16668 v 84.33333 h 84.33333 V 109.16668 Z M 425.41666,24.833353 h 126.49999 c 34.91927,0 63.25,28.330728 63.25,63.249996 V 214.58334 c 0,34.91927 -28.33073,63.25 -63.25,63.25 H 425.41666 c -34.91927,0 -63.24999,-28.33073 -63.24999,-63.25 V 88.083349 c 0,-34.919268 28.33072,-63.249996 63.24999,-63.249996 z M 404.33333,446.49999 c -23.32344,0 -42.16666,-18.84322 -42.16666,-42.16666 0,-23.32344 18.84322,-42.16666 42.16666,-42.16666 23.32344,0 42.16666,18.84322 42.16666,42.16666 0,23.32344 -18.84322,42.16666 -42.16666,42.16666 z m 0,84.33333 c 23.32344,0 42.16666,18.84323 42.16666,42.16666 0,23.32344 -18.84322,42.16667 -42.16666,42.16667 -23.32344,0 -42.16666,-18.84323 -42.16666,-42.16667 0,-23.32343 18.84322,-42.16666 42.16666,-42.16666 z m 126.49999,42.16666 c 0,-23.32343 18.84323,-42.16666 42.16666,-42.16666 23.32344,0 42.16667,18.84323 42.16667,42.16666 0,23.32344 -18.84323,42.16667 -42.16667,42.16667 -23.32343,0 -42.16666,-18.84323 -42.16666,-42.16667 z m 42.16666,-126.49999 c -23.32343,0 -42.16666,-18.84322 -42.16666,-42.16666 0,-23.32344 18.84323,-42.16666 42.16666,-42.16666 23.32344,0 42.16667,18.84322 42.16667,42.16666 0,23.32344 -18.84323,42.16666 -42.16667,42.16666 z m -42.16666,42.16666 c 0,23.32344 -18.84323,42.16667 -42.16667,42.16667 -23.32343,0 -42.16666,-18.84323 -42.16666,-42.16667 0,-23.32343 18.84323,-42.16666 42.16666,-42.16666 23.32344,0 42.16667,18.84323 42.16667,42.16666 z" />
</svg>