<svg width="90" height="90" version="1.1" viewBox="0 0 90 90" xml:space="preserve"
    xmlns="http://www.w3.org/2000/svg">
    <path
        d="m14.75 88.11c-0.09763-0.09763-0.1775-9.4445-0.1775-20.771v-20.593h-7.1438c-3.9291 0-7.1438-0.08956-7.1438-0.19902 0-0.30701 44.547-44.78 44.854-44.78 0.14907 0 3.2169 2.9545 6.8174 6.5655 3.6005 3.6111 6.6037 6.5082 6.6737 6.4382 0.07005-0.07004 0.12736-1.5363 0.12736-3.2583v-3.1309h13.494v20.244l8.7312 8.7282c4.8022 4.8005 8.7313 8.8777 8.7313 9.0605 0 0.25838-1.5876 0.33223-7.1421 0.33223h-7.1421l-0.13552 41.407-30.183 0.06726c-16.601 0.037-30.263-0.01262-30.361-0.11024zm25.752-17.552v-12.171h7.6729v24.342h4.4979v-13.229h11.642v13.229h4.4979v-28.31h-4.4876l-0.07131 5.7547-0.0713 5.7547h-11.377l-0.07131-5.7547-0.0713-5.7547h-24.861v3.9688h7.4083v24.342h5.2917z" />
</svg>