<svg width="2005" height="2005" version="1.1" viewBox="0 0 2005 2005" xmlns="http://www.w3.org/2000/svg">
    <path
        d="m1864.6 1140.3a862.13 862.13 0 0 1-862.13 862.13 862.13 862.13 0 0 1-862.13-862.13 862.13 862.13 0 0 1 862.13-862.13 862.13 862.13 0 0 1 862.13 862.13z"
        opacity="30%" />
    <path
        d="m509.97 1512.3-87.824 263.78a862.13 862.13 0 0 0 580.36 226.36 862.13 862.13 0 0 0 180.74-21.402l82.062-277.4c-95.57 36.881-234.55 97.932-414.67 58-141.33-31.333-258.67-120.67-340.67-249.33z" />
    <path
        d="m973.3 1708.6c-256.67 0-437.69-193.64-430-431 8-247 153.38-375.66 209-427 80.599-74.398 269-315 153-848 442 205 632 749 606 1075-15.557 195.06-93 365-200 479s-243.21 152-338 152z" />
</svg>